<mxfile host="Electron" modified="2023-06-10T14:55:49.812Z" agent="Mozilla/5.0 (Windows NT 10.0; Win64; x64) AppleWebKit/537.36 (KHTML, like Gecko) draw.io/21.3.7 Chrome/112.0.5615.204 Electron/24.5.0 Safari/537.36" etag="5_W9qZbtmbZYouGpjCcM" version="21.3.7" type="device">
  <diagram name="Page-1" id="NRyCXhn-9vutZIG_f-Vn">
    <mxGraphModel dx="988" dy="573" grid="1" gridSize="10" guides="1" tooltips="1" connect="1" arrows="1" fold="1" page="1" pageScale="1" pageWidth="827" pageHeight="1169" math="0" shadow="0">
      <root>
        <mxCell id="0" />
        <mxCell id="1" parent="0" />
        <mxCell id="aZ31qOg2rkFS8Uhd8reA-1" value="" style="rounded=1;whiteSpace=wrap;html=1;" vertex="1" parent="1">
          <mxGeometry x="40" y="40" width="720" height="370" as="geometry" />
        </mxCell>
        <mxCell id="aZ31qOg2rkFS8Uhd8reA-2" value="" style="endArrow=none;html=1;rounded=0;entryX=0.75;entryY=0;entryDx=0;entryDy=0;exitX=0.75;exitY=1;exitDx=0;exitDy=0;" edge="1" parent="1" source="aZ31qOg2rkFS8Uhd8reA-1" target="aZ31qOg2rkFS8Uhd8reA-1">
          <mxGeometry width="50" height="50" relative="1" as="geometry">
            <mxPoint x="480" y="150" as="sourcePoint" />
            <mxPoint x="530" y="100" as="targetPoint" />
          </mxGeometry>
        </mxCell>
        <mxCell id="aZ31qOg2rkFS8Uhd8reA-3" value="Unambiguous grammars" style="text;html=1;strokeColor=none;fillColor=none;align=center;verticalAlign=middle;whiteSpace=wrap;rounded=0;fontFamily=UGent Panno Text;fontSize=32;fontStyle=1" vertex="1" parent="1">
          <mxGeometry x="160" y="40" width="330" height="60" as="geometry" />
        </mxCell>
        <mxCell id="aZ31qOg2rkFS8Uhd8reA-4" value="Ambiguous grammars" style="text;html=1;strokeColor=none;fillColor=none;align=center;verticalAlign=middle;whiteSpace=wrap;rounded=0;fontFamily=UGent Panno Text;fontSize=32;fontStyle=1;horizontal=0;" vertex="1" parent="1">
          <mxGeometry x="630" y="85" width="75" height="280" as="geometry" />
        </mxCell>
        <mxCell id="aZ31qOg2rkFS8Uhd8reA-5" value="" style="rounded=1;whiteSpace=wrap;html=1;fillColor=#f5f5f5;fontColor=#333333;strokeColor=#666666;" vertex="1" parent="1">
          <mxGeometry x="60" y="90" width="500" height="300" as="geometry" />
        </mxCell>
        <mxCell id="aZ31qOg2rkFS8Uhd8reA-6" value="" style="rounded=1;whiteSpace=wrap;html=1;fillColor=#dae8fc;strokeColor=#6c8ebf;" vertex="1" parent="1">
          <mxGeometry x="100" y="120" width="430" height="240" as="geometry" />
        </mxCell>
        <mxCell id="aZ31qOg2rkFS8Uhd8reA-7" value="" style="rounded=1;whiteSpace=wrap;html=1;fillColor=#d5e8d4;strokeColor=#82b366;" vertex="1" parent="1">
          <mxGeometry x="130" y="150" width="360" height="180" as="geometry" />
        </mxCell>
        <mxCell id="aZ31qOg2rkFS8Uhd8reA-8" value="" style="rounded=1;whiteSpace=wrap;html=1;fillColor=#fff2cc;strokeColor=#d6b656;" vertex="1" parent="1">
          <mxGeometry x="160" y="175" width="290" height="125" as="geometry" />
        </mxCell>
        <mxCell id="aZ31qOg2rkFS8Uhd8reA-9" value="LR(K)" style="text;html=1;strokeColor=none;fillColor=none;align=center;verticalAlign=middle;whiteSpace=wrap;rounded=0;fontFamily=UGent Panno Text;fontSize=25;" vertex="1" parent="1">
          <mxGeometry x="285" y="90" width="60" height="30" as="geometry" />
        </mxCell>
        <mxCell id="aZ31qOg2rkFS8Uhd8reA-10" value="LR(1)" style="text;html=1;strokeColor=none;fillColor=none;align=center;verticalAlign=middle;whiteSpace=wrap;rounded=0;fontFamily=UGent Panno Text;fontSize=25;" vertex="1" parent="1">
          <mxGeometry x="285" y="120" width="60" height="30" as="geometry" />
        </mxCell>
        <mxCell id="aZ31qOg2rkFS8Uhd8reA-11" value="LALR(1)" style="text;html=1;strokeColor=none;fillColor=none;align=center;verticalAlign=middle;whiteSpace=wrap;rounded=0;fontFamily=UGent Panno Text;fontSize=25;" vertex="1" parent="1">
          <mxGeometry x="272.5" y="150" width="85" height="30" as="geometry" />
        </mxCell>
        <mxCell id="aZ31qOg2rkFS8Uhd8reA-12" value="SLR(1)" style="text;html=1;strokeColor=none;fillColor=none;align=center;verticalAlign=middle;whiteSpace=wrap;rounded=0;fontFamily=UGent Panno Text;fontSize=25;" vertex="1" parent="1">
          <mxGeometry x="272.5" y="175" width="85" height="30" as="geometry" />
        </mxCell>
        <mxCell id="aZ31qOg2rkFS8Uhd8reA-13" value="" style="rounded=1;whiteSpace=wrap;html=1;fillColor=#FFE6CC;strokeColor=#d79b00;" vertex="1" parent="1">
          <mxGeometry x="174" y="205" width="256" height="75" as="geometry" />
        </mxCell>
        <mxCell id="aZ31qOg2rkFS8Uhd8reA-14" value="LR(0)" style="text;html=1;strokeColor=none;fillColor=none;align=center;verticalAlign=middle;whiteSpace=wrap;rounded=0;fontFamily=UGent Panno Text;fontSize=25;" vertex="1" parent="1">
          <mxGeometry x="272.5" y="225" width="85" height="30" as="geometry" />
        </mxCell>
        <mxCell id="aZ31qOg2rkFS8Uhd8reA-15" value="" style="rounded=1;whiteSpace=wrap;html=1;fontFamily=UGent Panno Text;fontSize=28;gradientColor=#FFE6CC;" vertex="1" parent="1">
          <mxGeometry x="190" y="100" width="80" height="170" as="geometry" />
        </mxCell>
        <mxCell id="aZ31qOg2rkFS8Uhd8reA-16" value="" style="rounded=1;whiteSpace=wrap;html=1;fontFamily=UGent Panno Text;fontSize=28;fillColor=#dae8fc;strokeColor=#6c8ebf;gradientColor=#FFE6CC;" vertex="1" parent="1">
          <mxGeometry x="197.5" y="130" width="65" height="130" as="geometry" />
        </mxCell>
        <mxCell id="aZ31qOg2rkFS8Uhd8reA-17" value="" style="rounded=1;whiteSpace=wrap;html=1;fontFamily=UGent Panno Text;fontSize=28;fillColor=#ffe6cc;strokeColor=#d79b00;" vertex="1" parent="1">
          <mxGeometry x="205" y="205" width="50" height="45" as="geometry" />
        </mxCell>
        <mxCell id="aZ31qOg2rkFS8Uhd8reA-18" value="LL(K)" style="text;html=1;strokeColor=none;fillColor=none;align=center;verticalAlign=middle;whiteSpace=wrap;rounded=0;fontFamily=UGent Panno Text;fontSize=25;" vertex="1" parent="1">
          <mxGeometry x="200" y="100" width="60" height="30" as="geometry" />
        </mxCell>
        <mxCell id="aZ31qOg2rkFS8Uhd8reA-19" value="LL(1)" style="text;html=1;strokeColor=none;fillColor=none;align=center;verticalAlign=middle;whiteSpace=wrap;rounded=0;fontFamily=UGent Panno Text;fontSize=25;" vertex="1" parent="1">
          <mxGeometry x="200" y="130" width="60" height="30" as="geometry" />
        </mxCell>
        <mxCell id="aZ31qOg2rkFS8Uhd8reA-20" value="LL(0)" style="text;html=1;strokeColor=none;fillColor=none;align=center;verticalAlign=middle;whiteSpace=wrap;rounded=0;fontFamily=UGent Panno Text;fontSize=25;" vertex="1" parent="1">
          <mxGeometry x="200" y="212.5" width="60" height="30" as="geometry" />
        </mxCell>
      </root>
    </mxGraphModel>
  </diagram>
</mxfile>
